<?xml version="1.0" encoding="us-ascii" standalone="no"?><svg xmlns="http://www.w3.org/2000/svg" xmlns:xlink="http://www.w3.org/1999/xlink" contentStyleType="text/css" height="849px" preserveAspectRatio="none" style="width:753px;height:849px;background:#FFFFFF;" version="1.1" viewBox="0 0 753 849" width="753px" zoomAndPan="magnify"><defs/><g><line style="stroke:#181818;stroke-width:0.5;stroke-dasharray:5.0,5.0;" x1="121" x2="121" y1="82.6094" y2="766.1953"/><line style="stroke:#181818;stroke-width:0.5;stroke-dasharray:5.0,5.0;" x1="294" x2="294" y1="82.6094" y2="766.1953"/><line style="stroke:#181818;stroke-width:0.5;stroke-dasharray:5.0,5.0;" x1="502" x2="502" y1="82.6094" y2="766.1953"/><line style="stroke:#181818;stroke-width:0.5;stroke-dasharray:5.0,5.0;" x1="690" x2="690" y1="329.0703" y2="766.1953"/><line style="stroke:#181818;stroke-width:0.5;stroke-dasharray:5.0,5.0;" x1="734.5" x2="734.5" y1="82.6094" y2="766.1953"/><text fill="#000000" font-family="sans-serif" font-size="14" lengthAdjust="spacing" textLength="29" x="103.5" y="79.5332">User</text><ellipse cx="121" cy="13.5" fill="#E2E2F0" rx="8" ry="8" style="stroke:#181818;stroke-width:0.5;"/><path d="M121,21.5 L121,48.5 M108,29.5 L134,29.5 M121,48.5 L108,63.5 M121,48.5 L134,63.5 " fill="none" style="stroke:#181818;stroke-width:0.5;"/><rect fill="#E2E2F0" height="31.6094" rx="2.5" ry="2.5" style="stroke:#181818;stroke-width:0.5;" width="47" x="270.5" y="50"/><text fill="#000000" font-family="sans-serif" font-size="14" lengthAdjust="spacing" textLength="33" x="277.5" y="71.5332">Tana</text><rect fill="#E2E2F0" height="31.6094" rx="2.5" ry="2.5" style="stroke:#181818;stroke-width:0.5;" width="21" x="491.5" y="50"/><text fill="#000000" font-family="sans-serif" font-size="14" lengthAdjust="spacing" textLength="7" x="498.5" y="71.5332">&#955;</text><text fill="#000000" font-family="sans-serif" font-size="14" lengthAdjust="spacing" textLength="27" x="718" y="79.5332">LLM</text><ellipse cx="734.5" cy="49" fill="#E2E2F0" rx="12" ry="12" style="stroke:#181818;stroke-width:0.5;"/><line style="stroke:#181818;stroke-width:0.5;" x1="722.5" x2="746.5" y1="63" y2="63"/><text fill="#000000" font-family="sans-serif" font-size="14" lengthAdjust="spacing" textLength="29" x="103.5" y="840.7285">User</text><ellipse cx="121" cy="774.6953" fill="#E2E2F0" rx="8" ry="8" style="stroke:#181818;stroke-width:0.5;"/><path d="M121,782.6953 L121,809.6953 M108,790.6953 L134,790.6953 M121,809.6953 L108,824.6953 M121,809.6953 L134,824.6953 " fill="none" style="stroke:#181818;stroke-width:0.5;"/><rect fill="#E2E2F0" height="31.6094" rx="2.5" ry="2.5" style="stroke:#181818;stroke-width:0.5;" width="47" x="270.5" y="766.1953"/><text fill="#000000" font-family="sans-serif" font-size="14" lengthAdjust="spacing" textLength="33" x="277.5" y="787.7285">Tana</text><rect fill="#E2E2F0" height="31.6094" rx="2.5" ry="2.5" style="stroke:#181818;stroke-width:0.5;" width="21" x="491.5" y="766.1953"/><text fill="#000000" font-family="sans-serif" font-size="14" lengthAdjust="spacing" textLength="7" x="498.5" y="787.7285">&#955;</text><text fill="#000000" font-family="sans-serif" font-size="14" lengthAdjust="spacing" textLength="30" x="672" y="826.7285">RAG</text><path d="M672,776.1953 C672,766.1953 690,766.1953 690,766.1953 C690,766.1953 708,766.1953 708,776.1953 L708,802.1953 C708,812.1953 690,812.1953 690,812.1953 C690,812.1953 672,812.1953 672,802.1953 L672,776.1953 " fill="#E2E2F0" style="stroke:#181818;stroke-width:1.5;"/><path d="M672,776.1953 C672,786.1953 690,786.1953 690,786.1953 C690,786.1953 708,786.1953 708,776.1953 " fill="none" style="stroke:#181818;stroke-width:1.5;"/><text fill="#000000" font-family="sans-serif" font-size="14" lengthAdjust="spacing" textLength="27" x="718" y="812.7285">LLM</text><ellipse cx="734.5" cy="782.1953" fill="#E2E2F0" rx="12" ry="12" style="stroke:#181818;stroke-width:0.5;"/><line style="stroke:#181818;stroke-width:0.5;" x1="722.5" x2="746.5" y1="796.1953" y2="796.1953"/><polygon fill="#181818" points="109,108.9609,119,112.9609,109,116.9609,113,112.9609" style="stroke:#181818;stroke-width:1.0;"/><line style="stroke:#181818;stroke-width:1.0;" x1="5" x2="115" y1="112.9609" y2="112.9609"/><text fill="#000000" font-family="sans-serif" font-size="13" lengthAdjust="spacing" textLength="92" x="12" y="108.1045">Find job posting</text><polygon fill="#181818" points="282,139.3125,292,143.3125,282,147.3125,286,143.3125" style="stroke:#181818;stroke-width:1.0;"/><line style="stroke:#181818;stroke-width:1.0;" x1="121" x2="288" y1="143.3125" y2="143.3125"/><text fill="#000000" font-family="sans-serif" font-size="13" lengthAdjust="spacing" textLength="129" x="128" y="138.4561">Add #job-posting node</text><line style="stroke:#181818;stroke-width:1.0;" x1="294" x2="336" y1="173.6641" y2="173.6641"/><line style="stroke:#181818;stroke-width:1.0;" x1="336" x2="336" y1="173.6641" y2="186.6641"/><line style="stroke:#181818;stroke-width:1.0;" x1="295" x2="336" y1="186.6641" y2="186.6641"/><polygon fill="#181818" points="305,182.6641,295,186.6641,305,190.6641,301,186.6641" style="stroke:#181818;stroke-width:1.0;"/><text fill="#000000" font-family="sans-serif" font-size="13" lengthAdjust="spacing" textLength="158" x="301" y="168.8076">Make #job-application node</text><polygon fill="#181818" points="282,213.0156,292,217.0156,282,221.0156,286,217.0156" style="stroke:#181818;stroke-width:1.0;"/><line style="stroke:#181818;stroke-width:1.0;" x1="121" x2="288" y1="217.0156" y2="217.0156"/><text fill="#000000" font-family="sans-serif" font-size="13" lengthAdjust="spacing" textLength="116" x="128" y="212.1592">Add link to CV node</text><line style="stroke:#181818;stroke-width:1.0;" x1="79" x2="121" y1="247.3672" y2="247.3672"/><line style="stroke:#181818;stroke-width:1.0;" x1="79" x2="79" y1="247.3672" y2="260.3672"/><line style="stroke:#181818;stroke-width:1.0;" x1="79" x2="120" y1="260.3672" y2="260.3672"/><polygon fill="#181818" points="112,256.3672,122,260.3672,112,264.3672,116,260.3672" style="stroke:#181818;stroke-width:1.0;"/><text fill="#000000" font-family="sans-serif" font-size="13" lengthAdjust="spacing" textLength="105" x="16" y="242.5107">Find news articles</text><polygon fill="#181818" points="282,286.7188,292,290.7188,282,294.7188,286,290.7188" style="stroke:#181818;stroke-width:1.0;"/><line style="stroke:#181818;stroke-width:1.0;" x1="121" x2="288" y1="290.7188" y2="290.7188"/><text fill="#000000" font-family="sans-serif" font-size="13" lengthAdjust="spacing" textLength="149" x="128" y="285.8623">Add links to news articles</text><polygon fill="#181818" points="282,317.0703,292,321.0703,282,325.0703,286,321.0703" style="stroke:#181818;stroke-width:1.0;"/><line style="stroke:#181818;stroke-width:1.0;" x1="121" x2="288" y1="321.0703" y2="321.0703"/><text fill="#000000" font-family="sans-serif" font-size="13" lengthAdjust="spacing" textLength="59" x="128" y="316.2139">Kick off AI</text><polygon fill="#181818" points="490,317.0703,500,321.0703,490,325.0703,494,321.0703" style="stroke:#181818;stroke-width:1.0;"/><line style="stroke:#181818;stroke-width:1.0;" x1="294" x2="496" y1="321.0703" y2="321.0703"/><text fill="#000000" font-family="sans-serif" font-size="13" lengthAdjust="spacing" textLength="81" x="301" y="316.2139">Submit to API</text><text fill="#000000" font-family="sans-serif" font-size="14" lengthAdjust="spacing" textLength="30" x="672" y="389.6035">RAG</text><path d="M672,339.0703 C672,329.0703 690,329.0703 690,329.0703 C690,329.0703 708,329.0703 708,339.0703 L708,365.0703 C708,375.0703 690,375.0703 690,375.0703 C690,375.0703 672,375.0703 672,365.0703 L672,339.0703 " fill="#E2E2F0" style="stroke:#181818;stroke-width:1.5;"/><path d="M672,339.0703 C672,349.0703 690,349.0703 690,349.0703 C690,349.0703 708,349.0703 708,339.0703 " fill="none" style="stroke:#181818;stroke-width:1.5;"/><polygon fill="#181818" points="660,347.4219,670,351.4219,660,355.4219,664,351.4219" style="stroke:#181818;stroke-width:1.0;"/><line style="stroke:#181818;stroke-width:1.0;" x1="502" x2="666" y1="351.4219" y2="351.4219"/><text fill="#000000" font-family="sans-serif" font-size="13" lengthAdjust="spacing" textLength="146" x="509" y="346.5654">Index context documents</text><polygon fill="#181818" points="722.5,411.0313,732.5,415.0313,722.5,419.0313,726.5,415.0313" style="stroke:#181818;stroke-width:1.0;"/><line style="stroke:#181818;stroke-width:1.0;" x1="502" x2="728.5" y1="415.0313" y2="415.0313"/><text fill="#000000" font-family="sans-serif" font-size="13" lengthAdjust="spacing" textLength="179" x="509" y="410.1748">Prompt for keywords in posting</text><polygon fill="#181818" points="513,457.7344,503,461.7344,513,465.7344,509,461.7344" style="stroke:#181818;stroke-width:1.0;"/><line style="stroke:#181818;stroke-width:1.0;" x1="507" x2="733.5" y1="461.7344" y2="461.7344"/><text fill="#000000" font-family="sans-serif" font-size="13" lengthAdjust="spacing" textLength="157" x="519" y="456.8779">Return keywords in posting</text><polygon fill="#181818" points="305,457.7344,295,461.7344,305,465.7344,301,461.7344" style="stroke:#181818;stroke-width:1.0;"/><line style="stroke:#181818;stroke-width:1.0;" x1="299" x2="501" y1="461.7344" y2="461.7344"/><text fill="#000000" font-family="sans-serif" font-size="13" lengthAdjust="spacing" textLength="97" x="311" y="440.5264">Add keywords to</text><text fill="#000000" font-family="sans-serif" font-size="13" lengthAdjust="spacing" textLength="70" x="315" y="456.8779">#job-posting</text><polygon fill="#181818" points="678,529.4375,688,533.4375,678,537.4375,682,533.4375" style="stroke:#181818;stroke-width:1.0;"/><line style="stroke:#181818;stroke-width:1.0;" x1="502" x2="684" y1="533.4375" y2="533.4375"/><text fill="#000000" font-family="sans-serif" font-size="13" lengthAdjust="spacing" textLength="126" x="509" y="512.2295">Retrieve news parts &amp;</text><text fill="#000000" font-family="sans-serif" font-size="13" lengthAdjust="spacing" textLength="91" x="509" y="528.5811">long cover letter</text><polygon fill="#181818" points="722.5,529.4375,732.5,533.4375,722.5,537.4375,726.5,533.4375" style="stroke:#181818;stroke-width:1.0;"/><line style="stroke:#181818;stroke-width:1.0;" x1="690" x2="728.5" y1="533.4375" y2="533.4375"/><polygon fill="#181818" points="513,559.7891,503,563.7891,513,567.7891,509,563.7891" style="stroke:#181818;stroke-width:1.0;"/><line style="stroke:#181818;stroke-width:1.0;" x1="507" x2="733.5" y1="563.7891" y2="563.7891"/><text fill="#000000" font-family="sans-serif" font-size="13" lengthAdjust="spacing" textLength="119" x="519" y="558.9326">Generate shorter CV</text><polygon fill="#181818" points="678,615.1406,688,619.1406,678,623.1406,682,619.1406" style="stroke:#181818;stroke-width:1.0;"/><line style="stroke:#181818;stroke-width:1.0;" x1="502" x2="684" y1="619.1406" y2="619.1406"/><text fill="#000000" font-family="sans-serif" font-size="13" lengthAdjust="spacing" textLength="132" x="509" y="614.2842">Match keywords to CV</text><polygon fill="#181818" points="722.5,615.1406,732.5,619.1406,722.5,623.1406,726.5,619.1406" style="stroke:#181818;stroke-width:1.0;"/><line style="stroke:#181818;stroke-width:1.0;" x1="690" x2="728.5" y1="619.1406" y2="619.1406"/><polygon fill="#181818" points="513,645.4922,503,649.4922,513,653.4922,509,649.4922" style="stroke:#181818;stroke-width:1.0;"/><line style="stroke:#181818;stroke-width:1.0;" x1="507" x2="733.5" y1="649.4922" y2="649.4922"/><text fill="#000000" font-family="sans-serif" font-size="13" lengthAdjust="spacing" textLength="201" x="519" y="644.6357">Return matching accomplishments</text><line style="stroke:#181818;stroke-width:1.0;" x1="502" x2="544" y1="704.8438" y2="704.8438"/><line style="stroke:#181818;stroke-width:1.0;" x1="544" x2="544" y1="704.8438" y2="717.8438"/><line style="stroke:#181818;stroke-width:1.0;" x1="503" x2="544" y1="717.8438" y2="717.8438"/><polygon fill="#181818" points="513,713.8438,503,717.8438,513,721.8438,509,717.8438" style="stroke:#181818;stroke-width:1.0;"/><text fill="#000000" font-family="sans-serif" font-size="13" lengthAdjust="spacing" textLength="136" x="509" y="699.9873">Build LaTeX documents</text><polygon fill="#181818" points="305,744.1953,295,748.1953,305,752.1953,301,748.1953" style="stroke:#181818;stroke-width:1.0;"/><line style="stroke:#181818;stroke-width:1.0;" x1="299" x2="501" y1="748.1953" y2="748.1953"/><text fill="#000000" font-family="sans-serif" font-size="13" lengthAdjust="spacing" textLength="184" x="311" y="743.3389">Attach PDFs to #job-application</text><!--SRC=[fLNRRXCn47ttLmn5QW6Hz14HST42eWHIgGf9o_N1iITTarrxiRrfW_fd_0FVn8ntisn2nGkFcHsVENDcpkGeZx4Ae-FZgf0srcKnLAuy3lYzHgjme8syzB8KucW05xcCe1q6k3A5Xb0hXI50uTmA2hF2v-88O01Z28WWuPjRGEL2DFOI8Z_bn036HlJOXANLKCeLPrkyWi_qPD0- -NflIqnMrJ1AAuV6gkVMQJJwwLiiPpzEjFmqtQpl0mU9Kyp1H2wmTBwKqJWxP4RCATCwnK4kN1s93YPwqSG27n9vkuBeKhWj_p1nyrZ8Y9h91P0-6bLWw6FAxcsvWPVdYKcZGWOpuWmaPib8AwEeTxTS4Yva5-z98xz6Nx20r60ZaF98vIW0q-m4IFSgRzfgm1adLAZCqgX4lzTfKtH63J3QqbWTO8MRA-SrAz9rl1q8OorDKH0dqgDq7a5ZbAQ0fNTbIjzfUWZZ99kbUKML4yd4c1hVCkBk6g8zWNeaMdt_PyRTE5zsGYddQPagPpLtbS09gp0ggVBl0lhyqUEmUlJjQlFcOw_07naLmQ8DgL3X29_bfYWD3WgCjCVSrTAfcfflD9R4BF3Uu9hij6sQQEr3vyw5f2B2Wjm0YxeWI9eF-IDmeVxGS-SZ4KdP- -KR_rZWyDgGYmAgRlV_5EIq01Cvmmy4eJ41Nw95dvGyU_MwgOfIvMHoLPTeunw6Z56siqT-qUM5XCRHYDUH5-4sfco8eH1tAYylIqcfxWT4NwCGKaKgVJ0dKnm0wJSNLLeyKx681_mmnMSxyLy_EPO9BQDSo839DHIP2g9auWOcarF-FH7Yy-0Pp4VmcdpHju6O0tsOZPANx_Osip7ohFrwoXBVtTkj9gKFi3q5spimXoU3hkhk2Tb_bknnUyexkXpfS6HZSGY9KZQ2z_MYD6c_ihEno3WwXGSFHZ2cbRtcpKsJw0RKf4n6S4Rshc8QTVy-R0MPjFXJZBMtjwOSGjPZt_Ft5xkZeRYvkMcP9JnlSDrU5PvYW4FuOfEj-ej2yDD4jQDoqYvfQmFF5wOFVSe7QUVEKC9VA6r3wNgb0wZeDDCmGzxeqo5IxekQ_zyQh-mfo5qd5pIEeMBxUo5-0m00]--></g></svg>