<?xml version="1.0" encoding="us-ascii" standalone="no"?><svg xmlns="http://www.w3.org/2000/svg" xmlns:xlink="http://www.w3.org/1999/xlink" contentStyleType="text/css" height="331px" preserveAspectRatio="none" style="width:1099px;height:331px;background:#FFFFFF;" version="1.1" viewBox="0 0 1099 331" width="1099px" zoomAndPan="magnify"><defs/><g><line style="stroke:#181818;stroke-width:1.5;" x1="86" x2="86" y1="65.0938" y2="85.0938"/><rect fill="#F1F1F1" height="35.0938" style="stroke:#181818;stroke-width:1.5;" width="152" x="10" y="85.0938"/><text fill="#000000" font-family="sans-serif" font-size="12" lengthAdjust="spacing" textLength="132" x="20" y="107.5508">Set up LLM environment</text><line style="stroke:#181818;stroke-width:1.5;" x1="86" x2="96" y1="152.7344" y2="152.7344"/><rect fill="#F1F1F1" height="35.0938" style="stroke:#181818;stroke-width:1.5;" width="107" x="96" y="135.1875"/><text fill="#000000" font-family="sans-serif" font-size="12" lengthAdjust="spacing" textLength="87" x="106" y="157.6445">Choose an LLM</text><line style="stroke:#181818;stroke-width:1.5;" x1="86" x2="96" y1="202.8281" y2="202.8281"/><rect fill="#F1F1F1" height="35.0938" style="stroke:#181818;stroke-width:1.5;" width="119" x="96" y="185.2813"/><text fill="#000000" font-family="sans-serif" font-size="12" lengthAdjust="spacing" textLength="99" x="106" y="207.7383">Set up LangChain</text><line style="stroke:#181818;stroke-width:1.5;" x1="86" x2="86" y1="120.1875" y2="202.8281"/><line style="stroke:#181818;stroke-width:1.5;" x1="286.5" x2="286.5" y1="65.0938" y2="85.0938"/><rect fill="#F1F1F1" height="35.0938" style="stroke:#181818;stroke-width:1.5;" width="103" x="235" y="85.0938"/><text fill="#000000" font-family="sans-serif" font-size="12" lengthAdjust="spacing" textLength="83" x="245" y="107.5508">Process Inputs</text><line style="stroke:#181818;stroke-width:1.5;" x1="286.5" x2="296.5" y1="152.7344" y2="152.7344"/><rect fill="#F1F1F1" height="35.0938" style="stroke:#181818;stroke-width:1.5;" width="138" x="296.5" y="135.1875"/><text fill="#000000" font-family="sans-serif" font-size="12" lengthAdjust="spacing" textLength="118" x="306.5" y="157.6445">Get posting keywords</text><line style="stroke:#181818;stroke-width:1.5;" x1="286.5" x2="296.5" y1="202.8281" y2="202.8281"/><rect fill="#F1F1F1" height="35.0938" style="stroke:#181818;stroke-width:1.5;" width="182" x="296.5" y="185.2813"/><text fill="#000000" font-family="sans-serif" font-size="12" lengthAdjust="spacing" textLength="162" x="306.5" y="207.7383">Find company goals/priorities</text><line style="stroke:#181818;stroke-width:1.5;" x1="286.5" x2="296.5" y1="252.9219" y2="252.9219"/><rect fill="#F1F1F1" height="35.0938" style="stroke:#181818;stroke-width:1.5;" width="188" x="296.5" y="235.375"/><text fill="#000000" font-family="sans-serif" font-size="12" lengthAdjust="spacing" textLength="168" x="306.5" y="257.832">Generate CV knowledge graph</text><line style="stroke:#181818;stroke-width:1.5;" x1="286.5" x2="296.5" y1="303.0156" y2="303.0156"/><rect fill="#F1F1F1" height="35.0938" style="stroke:#181818;stroke-width:1.5;" width="238" x="296.5" y="285.4688"/><text fill="#000000" font-family="sans-serif" font-size="12" lengthAdjust="spacing" textLength="218" x="306.5" y="307.9258">Make chatbot that interacts with the RAG</text><line style="stroke:#181818;stroke-width:1.5;" x1="286.5" x2="286.5" y1="120.1875" y2="303.0156"/><line style="stroke:#181818;stroke-width:1.5;" x1="634" x2="634" y1="65.0938" y2="85.0938"/><rect fill="#F1F1F1" height="35.0938" style="stroke:#181818;stroke-width:1.5;" width="159" x="554.5" y="85.0938"/><text fill="#000000" font-family="sans-serif" font-size="12" lengthAdjust="spacing" textLength="139" x="564.5" y="107.5508">Generate Cover Letter/CV</text><line style="stroke:#181818;stroke-width:1.5;" x1="634" x2="644" y1="152.7344" y2="152.7344"/><rect fill="#F1F1F1" height="35.0938" style="stroke:#181818;stroke-width:1.5;" width="133" x="644" y="135.1875"/><text fill="#000000" font-family="sans-serif" font-size="12" lengthAdjust="spacing" textLength="113" x="654" y="157.6445">Generate cover letter</text><line style="stroke:#181818;stroke-width:1.5;" x1="634" x2="644" y1="202.8281" y2="202.8281"/><rect fill="#F1F1F1" height="35.0938" style="stroke:#181818;stroke-width:1.5;" width="146" x="644" y="185.2813"/><text fill="#000000" font-family="sans-serif" font-size="12" lengthAdjust="spacing" textLength="126" x="654" y="207.7383">Generate CV Summary</text><line style="stroke:#181818;stroke-width:1.5;" x1="634" x2="644" y1="252.9219" y2="252.9219"/><rect fill="#F1F1F1" height="35.0938" style="stroke:#181818;stroke-width:1.5;" width="204" x="644" y="235.375"/><text fill="#000000" font-family="sans-serif" font-size="12" lengthAdjust="spacing" textLength="184" x="654" y="257.832">Extract relevant accomplishments</text><line style="stroke:#181818;stroke-width:1.5;" x1="634" x2="644" y1="303.0156" y2="303.0156"/><rect fill="#F1F1F1" height="35.0938" style="stroke:#181818;stroke-width:1.5;" width="174" x="644" y="285.4688"/><text fill="#000000" font-family="sans-serif" font-size="12" lengthAdjust="spacing" textLength="154" x="654" y="307.9258">Generate LaTeX documents</text><line style="stroke:#181818;stroke-width:1.5;" x1="634" x2="634" y1="120.1875" y2="303.0156"/><line style="stroke:#181818;stroke-width:1.5;" x1="930.5" x2="930.5" y1="65.0938" y2="85.0938"/><rect fill="#F1F1F1" height="35.0938" style="stroke:#181818;stroke-width:1.5;" width="125" x="868" y="85.0938"/><text fill="#000000" font-family="sans-serif" font-size="12" lengthAdjust="spacing" textLength="105" x="878" y="107.5508">Implement Tana UI</text><line style="stroke:#181818;stroke-width:1.5;" x1="930.5" x2="940.5" y1="152.7344" y2="152.7344"/><rect fill="#F1F1F1" height="35.0938" style="stroke:#181818;stroke-width:1.5;" width="148" x="940.5" y="135.1875"/><text fill="#000000" font-family="sans-serif" font-size="12" lengthAdjust="spacing" textLength="128" x="950.5" y="157.6445">AWS Lambda functions</text><line style="stroke:#181818;stroke-width:1.5;" x1="930.5" x2="940.5" y1="202.8281" y2="202.8281"/><rect fill="#F1F1F1" height="35.0938" style="stroke:#181818;stroke-width:1.5;" width="117" x="940.5" y="185.2813"/><text fill="#000000" font-family="sans-serif" font-size="12" lengthAdjust="spacing" textLength="97" x="950.5" y="207.7383">AWS API Gateway</text><line style="stroke:#181818;stroke-width:1.5;" x1="930.5" x2="930.5" y1="120.1875" y2="202.8281"/><line style="stroke:#181818;stroke-width:1.5;" x1="86" x2="930.5" y1="65.0938" y2="65.0938"/><rect fill="#F1F1F1" height="35.0938" style="stroke:#181818;stroke-width:1.5;" width="192" x="412.25" y="10"/><text fill="#000000" font-family="sans-serif" font-size="12" lengthAdjust="spacing" textLength="172" x="422.25" y="32.457">Cover Letter AI Application WBS</text><line style="stroke:#181818;stroke-width:1.5;" x1="508.25" x2="508.25" y1="45.0938" y2="65.0938"/><!--SRC=[xLFRRjf047tVhvYt0b80qoIL_0HnA0KP2SLS-ZhO4tk5lMljpaBv- -uw8ahQFwZwj9evP-RCRQUMqV3bQCMNYhcryMZKrgZODVKmryt88tU5nD9W8yG04dqc0oan-sUsX5dRrZ97bbh1uIaJWm5anE1QIDCra3fBerL3YZtYeokjBG6gW7QU6nbLcLGeLKYmCJedQs6fMiUseoqyhTMMfIhXHDUBDiKRy5sg0doTBQehb1fhEsgDr4Qof5ke8eDCaEpXfFIbfg8ayFsqLOUlyKIGLyX7pS3-1QbySvYpXOlaoli8NcOByIdNXp6CalrdeRm3wmxyguJCDGsQQ-UV_-AW0uPgElkP0-QXbLhQAepiZ_fJtD9FA7JkRY0iFPc21LjK2Bjb5p4xP9xS70k4LwVoi1lx3imsIrZuT1UyYYcf8cnUJD-FuF-A_z4LRyAdtgrJy8NRiCfeE1bFlWwZSUz01QnS3T44eYX-k8_7ts3-l8M0zqLliKd1QcToWa9QDlBeWbvVhF2CyE8KouPY25Plk-v3DhyvOVxXE5RxzHi9VcZEMiqT-V7-xacoln4J1hfVYsTwHLUp3yrruMyXXgID9WyJ4Ux7OUcLI8b4UmLpZM6N_GO0]--></g></svg>