<?xml version="1.0" encoding="us-ascii" standalone="no"?><svg xmlns="http://www.w3.org/2000/svg" xmlns:xlink="http://www.w3.org/1999/xlink" contentStyleType="text/css" height="979px" preserveAspectRatio="none" style="width:753px;height:979px;background:#FFFFFF;" version="1.1" viewBox="0 0 753 979" width="753px" zoomAndPan="magnify"><defs/><g><line style="stroke:#181818;stroke-width:0.5;stroke-dasharray:5.0,5.0;" x1="121" x2="121" y1="82.6094" y2="896.25"/><line style="stroke:#181818;stroke-width:0.5;stroke-dasharray:5.0,5.0;" x1="294" x2="294" y1="82.6094" y2="896.25"/><line style="stroke:#181818;stroke-width:0.5;stroke-dasharray:5.0,5.0;" x1="502" x2="502" y1="82.6094" y2="896.25"/><line style="stroke:#181818;stroke-width:0.5;stroke-dasharray:5.0,5.0;" x1="690" x2="690" y1="329.0703" y2="896.25"/><line style="stroke:#181818;stroke-width:0.5;stroke-dasharray:5.0,5.0;" x1="734.5" x2="734.5" y1="82.6094" y2="896.25"/><text fill="#000000" font-family="sans-serif" font-size="14" lengthAdjust="spacing" textLength="29" x="103.5" y="79.5332">User</text><ellipse cx="121" cy="13.5" fill="#E2E2F0" rx="8" ry="8" style="stroke:#181818;stroke-width:0.5;"/><path d="M121,21.5 L121,48.5 M108,29.5 L134,29.5 M121,48.5 L108,63.5 M121,48.5 L134,63.5 " fill="none" style="stroke:#181818;stroke-width:0.5;"/><rect fill="#E2E2F0" height="31.6094" rx="2.5" ry="2.5" style="stroke:#181818;stroke-width:0.5;" width="47" x="270.5" y="50"/><text fill="#000000" font-family="sans-serif" font-size="14" lengthAdjust="spacing" textLength="33" x="277.5" y="71.5332">Tana</text><rect fill="#E2E2F0" height="31.6094" rx="2.5" ry="2.5" style="stroke:#181818;stroke-width:0.5;" width="21" x="491.5" y="50"/><text fill="#000000" font-family="sans-serif" font-size="14" lengthAdjust="spacing" textLength="7" x="498.5" y="71.5332">&#955;</text><text fill="#000000" font-family="sans-serif" font-size="14" lengthAdjust="spacing" textLength="27" x="718" y="79.5332">LLM</text><ellipse cx="734.5" cy="49" fill="#E2E2F0" rx="12" ry="12" style="stroke:#181818;stroke-width:0.5;"/><line style="stroke:#181818;stroke-width:0.5;" x1="722.5" x2="746.5" y1="63" y2="63"/><text fill="#000000" font-family="sans-serif" font-size="14" lengthAdjust="spacing" textLength="29" x="103.5" y="970.7832">User</text><ellipse cx="121" cy="904.75" fill="#E2E2F0" rx="8" ry="8" style="stroke:#181818;stroke-width:0.5;"/><path d="M121,912.75 L121,939.75 M108,920.75 L134,920.75 M121,939.75 L108,954.75 M121,939.75 L134,954.75 " fill="none" style="stroke:#181818;stroke-width:0.5;"/><rect fill="#E2E2F0" height="31.6094" rx="2.5" ry="2.5" style="stroke:#181818;stroke-width:0.5;" width="47" x="270.5" y="896.25"/><text fill="#000000" font-family="sans-serif" font-size="14" lengthAdjust="spacing" textLength="33" x="277.5" y="917.7832">Tana</text><rect fill="#E2E2F0" height="31.6094" rx="2.5" ry="2.5" style="stroke:#181818;stroke-width:0.5;" width="21" x="491.5" y="896.25"/><text fill="#000000" font-family="sans-serif" font-size="14" lengthAdjust="spacing" textLength="7" x="498.5" y="917.7832">&#955;</text><text fill="#000000" font-family="sans-serif" font-size="14" lengthAdjust="spacing" textLength="30" x="672" y="956.7832">RAG</text><path d="M672,906.25 C672,896.25 690,896.25 690,896.25 C690,896.25 708,896.25 708,906.25 L708,932.25 C708,942.25 690,942.25 690,942.25 C690,942.25 672,942.25 672,932.25 L672,906.25 " fill="#E2E2F0" style="stroke:#181818;stroke-width:1.5;"/><path d="M672,906.25 C672,916.25 690,916.25 690,916.25 C690,916.25 708,916.25 708,906.25 " fill="none" style="stroke:#181818;stroke-width:1.5;"/><text fill="#000000" font-family="sans-serif" font-size="14" lengthAdjust="spacing" textLength="27" x="718" y="942.7832">LLM</text><ellipse cx="734.5" cy="912.25" fill="#E2E2F0" rx="12" ry="12" style="stroke:#181818;stroke-width:0.5;"/><line style="stroke:#181818;stroke-width:0.5;" x1="722.5" x2="746.5" y1="926.25" y2="926.25"/><polygon fill="#181818" points="109,108.9609,119,112.9609,109,116.9609,113,112.9609" style="stroke:#181818;stroke-width:1.0;"/><line style="stroke:#181818;stroke-width:1.0;" x1="5" x2="115" y1="112.9609" y2="112.9609"/><text fill="#000000" font-family="sans-serif" font-size="13" lengthAdjust="spacing" textLength="92" x="12" y="108.1045">Find job posting</text><polygon fill="#181818" points="282,139.3125,292,143.3125,282,147.3125,286,143.3125" style="stroke:#181818;stroke-width:1.0;"/><line style="stroke:#181818;stroke-width:1.0;" x1="121" x2="288" y1="143.3125" y2="143.3125"/><text fill="#000000" font-family="sans-serif" font-size="13" lengthAdjust="spacing" textLength="129" x="128" y="138.4561">Add #job-posting node</text><line style="stroke:#181818;stroke-width:1.0;" x1="294" x2="336" y1="173.6641" y2="173.6641"/><line style="stroke:#181818;stroke-width:1.0;" x1="336" x2="336" y1="173.6641" y2="186.6641"/><line style="stroke:#181818;stroke-width:1.0;" x1="295" x2="336" y1="186.6641" y2="186.6641"/><polygon fill="#181818" points="305,182.6641,295,186.6641,305,190.6641,301,186.6641" style="stroke:#181818;stroke-width:1.0;"/><text fill="#000000" font-family="sans-serif" font-size="13" lengthAdjust="spacing" textLength="158" x="301" y="168.8076">Make #job-application node</text><polygon fill="#181818" points="282,213.0156,292,217.0156,282,221.0156,286,217.0156" style="stroke:#181818;stroke-width:1.0;"/><line style="stroke:#181818;stroke-width:1.0;" x1="121" x2="288" y1="217.0156" y2="217.0156"/><text fill="#000000" font-family="sans-serif" font-size="13" lengthAdjust="spacing" textLength="116" x="128" y="212.1592">Add link to CV node</text><line style="stroke:#181818;stroke-width:1.0;" x1="79" x2="121" y1="247.3672" y2="247.3672"/><line style="stroke:#181818;stroke-width:1.0;" x1="79" x2="79" y1="247.3672" y2="260.3672"/><line style="stroke:#181818;stroke-width:1.0;" x1="79" x2="120" y1="260.3672" y2="260.3672"/><polygon fill="#181818" points="112,256.3672,122,260.3672,112,264.3672,116,260.3672" style="stroke:#181818;stroke-width:1.0;"/><text fill="#000000" font-family="sans-serif" font-size="13" lengthAdjust="spacing" textLength="105" x="16" y="242.5107">Find news articles</text><polygon fill="#181818" points="282,286.7188,292,290.7188,282,294.7188,286,290.7188" style="stroke:#181818;stroke-width:1.0;"/><line style="stroke:#181818;stroke-width:1.0;" x1="121" x2="288" y1="290.7188" y2="290.7188"/><text fill="#000000" font-family="sans-serif" font-size="13" lengthAdjust="spacing" textLength="149" x="128" y="285.8623">Add links to news articles</text><polygon fill="#181818" points="282,317.0703,292,321.0703,282,325.0703,286,321.0703" style="stroke:#181818;stroke-width:1.0;"/><line style="stroke:#181818;stroke-width:1.0;" x1="121" x2="288" y1="321.0703" y2="321.0703"/><text fill="#000000" font-family="sans-serif" font-size="13" lengthAdjust="spacing" textLength="59" x="128" y="316.2139">Kick off AI</text><polygon fill="#181818" points="490,317.0703,500,321.0703,490,325.0703,494,321.0703" style="stroke:#181818;stroke-width:1.0;"/><line style="stroke:#181818;stroke-width:1.0;" x1="294" x2="496" y1="321.0703" y2="321.0703"/><text fill="#000000" font-family="sans-serif" font-size="13" lengthAdjust="spacing" textLength="81" x="301" y="316.2139">Submit to API</text><text fill="#000000" font-family="sans-serif" font-size="14" lengthAdjust="spacing" textLength="30" x="672" y="389.6035">RAG</text><path d="M672,339.0703 C672,329.0703 690,329.0703 690,329.0703 C690,329.0703 708,329.0703 708,339.0703 L708,365.0703 C708,375.0703 690,375.0703 690,375.0703 C690,375.0703 672,375.0703 672,365.0703 L672,339.0703 " fill="#E2E2F0" style="stroke:#181818;stroke-width:1.5;"/><path d="M672,339.0703 C672,349.0703 690,349.0703 690,349.0703 C690,349.0703 708,349.0703 708,339.0703 " fill="none" style="stroke:#181818;stroke-width:1.5;"/><polygon fill="#181818" points="660,347.4219,670,351.4219,660,355.4219,664,351.4219" style="stroke:#181818;stroke-width:1.0;"/><line style="stroke:#181818;stroke-width:1.0;" x1="502" x2="666" y1="351.4219" y2="351.4219"/><text fill="#000000" font-family="sans-serif" font-size="13" lengthAdjust="spacing" textLength="146" x="509" y="346.5654">Index context documents</text><polygon fill="#181818" points="722.5,411.0313,732.5,415.0313,722.5,419.0313,726.5,415.0313" style="stroke:#181818;stroke-width:1.0;"/><line style="stroke:#181818;stroke-width:1.0;" x1="502" x2="728.5" y1="415.0313" y2="415.0313"/><text fill="#000000" font-family="sans-serif" font-size="13" lengthAdjust="spacing" textLength="179" x="509" y="410.1748">Prompt for keywords in posting</text><polygon fill="#181818" points="513,457.7344,503,461.7344,513,465.7344,509,461.7344" style="stroke:#181818;stroke-width:1.0;"/><line style="stroke:#181818;stroke-width:1.0;" x1="507" x2="733.5" y1="461.7344" y2="461.7344"/><text fill="#000000" font-family="sans-serif" font-size="13" lengthAdjust="spacing" textLength="157" x="519" y="456.8779">Return keywords in posting</text><polygon fill="#181818" points="305,457.7344,295,461.7344,305,465.7344,301,461.7344" style="stroke:#181818;stroke-width:1.0;"/><line style="stroke:#181818;stroke-width:1.0;" x1="299" x2="501" y1="461.7344" y2="461.7344"/><text fill="#000000" font-family="sans-serif" font-size="13" lengthAdjust="spacing" textLength="97" x="311" y="440.5264">Add keywords to</text><text fill="#000000" font-family="sans-serif" font-size="13" lengthAdjust="spacing" textLength="70" x="315" y="456.8779">#job-posting</text><polygon fill="#181818" points="678,529.4375,688,533.4375,678,537.4375,682,533.4375" style="stroke:#181818;stroke-width:1.0;"/><line style="stroke:#181818;stroke-width:1.0;" x1="502" x2="684" y1="533.4375" y2="533.4375"/><text fill="#000000" font-family="sans-serif" font-size="13" lengthAdjust="spacing" textLength="126" x="509" y="512.2295">Retrieve news parts &amp;</text><text fill="#000000" font-family="sans-serif" font-size="13" lengthAdjust="spacing" textLength="91" x="509" y="528.5811">long cover letter</text><polygon fill="#181818" points="722.5,529.4375,732.5,533.4375,722.5,537.4375,726.5,533.4375" style="stroke:#181818;stroke-width:1.0;"/><line style="stroke:#181818;stroke-width:1.0;" x1="690" x2="728.5" y1="533.4375" y2="533.4375"/><polygon fill="#181818" points="513,559.7891,503,563.7891,513,567.7891,509,563.7891" style="stroke:#181818;stroke-width:1.0;"/><line style="stroke:#181818;stroke-width:1.0;" x1="507" x2="733.5" y1="563.7891" y2="563.7891"/><text fill="#000000" font-family="sans-serif" font-size="13" lengthAdjust="spacing" textLength="164" x="519" y="558.9326">Generate shorter cover letter</text><polygon fill="#181818" points="722.5,615.1406,732.5,619.1406,722.5,623.1406,726.5,619.1406" style="stroke:#181818;stroke-width:1.0;"/><line style="stroke:#181818;stroke-width:1.0;" x1="502" x2="728.5" y1="619.1406" y2="619.1406"/><text fill="#000000" font-family="sans-serif" font-size="13" lengthAdjust="spacing" textLength="172" x="509" y="614.2842">Generate CV overview section</text><polygon fill="#181818" points="513,629.1406,503,633.1406,513,637.1406,509,633.1406" style="stroke:#181818;stroke-width:1.0;"/><line style="stroke:#181818;stroke-width:1.0;" x1="507" x2="733.5" y1="633.1406" y2="633.1406"/><polygon fill="#181818" points="678,684.4922,688,688.4922,678,692.4922,682,688.4922" style="stroke:#181818;stroke-width:1.0;"/><line style="stroke:#181818;stroke-width:1.0;" x1="502" x2="684" y1="688.4922" y2="688.4922"/><text fill="#000000" font-family="sans-serif" font-size="13" lengthAdjust="spacing" textLength="132" x="509" y="683.6357">Match keywords to CV</text><polygon fill="#181818" points="722.5,684.4922,732.5,688.4922,722.5,692.4922,726.5,688.4922" style="stroke:#181818;stroke-width:1.0;"/><line style="stroke:#181818;stroke-width:1.0;" x1="690" x2="728.5" y1="688.4922" y2="688.4922"/><polygon fill="#181818" points="513,714.8438,503,718.8438,513,722.8438,509,718.8438" style="stroke:#181818;stroke-width:1.0;"/><line style="stroke:#181818;stroke-width:1.0;" x1="507" x2="733.5" y1="718.8438" y2="718.8438"/><text fill="#000000" font-family="sans-serif" font-size="13" lengthAdjust="spacing" textLength="201" x="519" y="713.9873">Return matching accomplishments</text><line style="stroke:#181818;stroke-width:1.0;" x1="502" x2="544" y1="774.1953" y2="774.1953"/><line style="stroke:#181818;stroke-width:1.0;" x1="544" x2="544" y1="774.1953" y2="787.1953"/><line style="stroke:#181818;stroke-width:1.0;" x1="503" x2="544" y1="787.1953" y2="787.1953"/><polygon fill="#181818" points="513,783.1953,503,787.1953,513,791.1953,509,787.1953" style="stroke:#181818;stroke-width:1.0;"/><text fill="#000000" font-family="sans-serif" font-size="13" lengthAdjust="spacing" textLength="136" x="509" y="769.3389">Build LaTeX documents</text><polygon fill="#181818" points="305,813.5469,295,817.5469,305,821.5469,301,817.5469" style="stroke:#181818;stroke-width:1.0;"/><line style="stroke:#181818;stroke-width:1.0;" x1="299" x2="501" y1="817.5469" y2="817.5469"/><text fill="#000000" font-family="sans-serif" font-size="13" lengthAdjust="spacing" textLength="184" x="311" y="812.6904">Attach PDFs to #job-application</text><polygon fill="#181818" points="305,843.8984,295,847.8984,305,851.8984,301,847.8984" style="stroke:#181818;stroke-width:1.0;"/><line style="stroke:#181818;stroke-width:1.0;" x1="299" x2="501" y1="847.8984" y2="847.8984"/><text fill="#000000" font-family="sans-serif" font-size="13" lengthAdjust="spacing" textLength="173" x="311" y="843.042">Attach text to #job-application</text><polygon fill="#181818" points="132,874.25,122,878.25,132,882.25,128,878.25" style="stroke:#181818;stroke-width:1.0;"/><line style="stroke:#181818;stroke-width:1.0;" x1="126" x2="293" y1="878.25" y2="878.25"/><text fill="#000000" font-family="sans-serif" font-size="13" lengthAdjust="spacing" textLength="30" x="138" y="873.3936">Done</text><!--SRC=[fLN1Zjis4BtpAwOROBSDOkyngD4cK1DawzOBB1mxIPlqG9FZ5ME9L4dA6mVxP_c7V5DdI5cHrKKlFNeqVFFcpRpnHHbZ4sQNbqqbRMphQgfSVHdmxnQjmeasyjRBMeYB2RmjPGJjCC2TgJI4LYaC0IhdTb2P7JuN5m0Jc4D010aVtGOQ5wAnjn3vAIS6C3QYnnoMLaCjTvnjyGxUqvD9z-Ilxu_4PDDCexHoQgnwRfr6et_-3UlLvoij_rmUzZy01ubJBC54Bh1rlfRHE3jbHiofq3h5GMvS6uaE9dhHn0gV47cxW-XIk2l_977pMCc8cia5a3uQLM4OOih-RNs05syIawn20IlY32HcpKWxewXtjzqIBXHlNvD6Ve- -OW6fmIoGyaZbA03BuWf8zwRCRMLmnWaDAhCrAj4VT9gBhgW1HjiQgmFiy73dl6P5-ewF0s6ihQaguaHwrCuZQ8pILB3rhaxf9qrFOPvaipIlg4eYcHXJuqT6t5qcEX1eGABJz__Ck1_dYruevJmjK-EivguIE65LHYLL_hk0VlFqnx1x-l7kyEiVWmBVP5G4YpQaGfKZV9QReZGug33I7dDNMwTQQZvhB8bPuBt1FTdfs3JH6aENpeMa8iA6t02RjY98cW_v8t2XuT1BvoCHITdZyja_5ZYyD-IYWAhV_My5EIt0Ggxm7K5eJC2tQD4d9MzUlifLKQgIJAxQ6cqSOSWOPJTxv1TzNaXe78tuAV8YFCIK3J4Luhl6ozjQKghx3D6tA8HKaKgVhSaKPq3whKMJ5iyqBE8PFqpnrKdywnUE5KBBA3SoO78DHPQ2A9buWCNYcdylX7W_UGRh6RmYNmnj8DP07rQpvEL7WytCHbvrNwzPuaUZtSefGu3ZAJZUWJNyDEchdfwGyRDaZuTJVgVBaGv7CHVda2WLCtZTRcgJzgkucOk2eqju_7W6SrhPJxovQHBzW7BAOWOtPEycfb4FxyDHa4M7lyJOUljWoZaK0_O3Vt-m9ngA-_lxZbd2ymRttLNXAGOuXmyssMguA0I_J5HxAbVTadOsyAVfVP7589CcCBP31tT2wffFsSc5ekFrh_gT5EdkfTEfwAZJ6eGoAziZKkulBVypPfUDj6Uzad-orwZOUAF6UMc23-NbnQJDUkaiYdy0]--></g></svg>